name analog
datacolumns 19
datarows 37
range 0.0 0.018000000000000002
endheader
time	ground_force_vx	ground_force_vy	ground_force_vz	ground_force_px	ground_force_py	ground_force_pz	l_ground_force_vx	l_ground_force_vy	l_ground_force_vz	l_ground_force_px	l_ground_force_py	l_ground_force_pz	ground_torque_x	ground_torque_y	ground_torque_z	l_ground_torque_x	l_ground_torque_y	l_ground_torque_z
0.0	-0.0	-0.0	-0.0	1.0412046909332275	29.2370662689209	-343.1933898925781	1.694813251495361	-39.6807861328125	-412.8949279785156	-0.0	-0.0	-0.0	-0.0	-0.0	-0.0	105881.1328125	-36397.14453125	1183.924072265625
0.0005	-0.0	-0.0	-0.0	1.0165061950683594	29.2229118347168	-344.1371154785156	1.4563419818878174	-39.25170135498047	-412.6969604492188	-0.0	-0.0	-0.0	-0.0	-0.0	-0.0	105727.0	-36350.0234375	1122.95703125
0.001	-0.0	-0.0	-0.0	1.206751823425293	29.43800544738769	-344.9685974121094	1.4492770433425903	-39.21361541748047	-411.520263671875	-0.0	-0.0	-0.0	-0.0	-0.0	-0.0	105460.953125	-36308.41796875	1132.484619140625
0.0015	-0.0	-0.0	-0.0	1.4503748416900637	29.145641326904297	-346.802734375	1.39153790473938	-38.977577209472656	-410.622802734375	-0.0	-0.0	-0.0	-0.0	-0.0	-0.0	105186.8671875	-36056.640625	1068.3023681640625
0.002	-0.0	-0.0	-0.0	1.0084328651428225	29.36888313293457	-347.340576171875	1.3265633583068848	-39.22285079956055	-410.3665466308594	-0.0	-0.0	-0.0	-0.0	-0.0	-0.0	105114.2109375	-35962.17578125	1084.360595703125
0.0025	-0.0	-0.0	-0.0	1.00117027759552	29.24336624145508	-348.91851806640625	1.3251334428787231	-39.35564041137695	-408.1473693847656	-0.0	-0.0	-0.0	-0.0	-0.0	-0.0	104683.71875	-36127.97265625	1050.5157470703125
0.003	-0.0	-0.0	-0.0	1.1109539270401	29.414440155029297	-349.5541076660156	1.41937255859375	-39.082252502441406	-407.7616882324219	-0.0	-0.0	-0.0	-0.0	-0.0	-0.0	104550.9140625	-35996.53125	1040.59619140625
0.0035	-0.0	-0.0	-0.0	1.6507384777069092	29.68612289428711	-350.1991271972656	1.3306617736816406	-39.004859924316406	-407.5917053222656	-0.0	-0.0	-0.0	-0.0	-0.0	-0.0	104253.8515625	-36027.96875	986.4625244140624
0.004	-0.0	-0.0	-0.0	1.3476638793945312	29.67246437072754	-350.70758056640625	1.3681071996688845	-38.71763229370117	-406.7073974609375	-0.0	-0.0	-0.0	-0.0	-0.0	-0.0	103863.3046875	-35701.26953125	947.0682983398438
0.0045000000000000005	-0.0	-0.0	-0.0	1.296534299850464	29.728031158447266	-352.3822631835937	1.3138160705566406	-38.52622222900391	-404.7999877929688	-0.0	-0.0	-0.0	-0.0	-0.0	-0.0	103630.296875	-35754.96484375	926.6422119140624
0.005	-0.0	-0.0	-0.0	1.4119813442230225	30.133590698242188	-352.8504638671875	1.42259418964386	-38.33929443359375	-403.2350463867188	-0.0	-0.0	-0.0	-0.0	-0.0	-0.0	103302.625	-35494.078125	925.545166015625
0.0055	-0.0	-0.0	-0.0	1.6739078760147097	30.07909202575684	-354.5091857910156	1.2286813259124756	-38.325008392333984	-402.22265625	-0.0	-0.0	-0.0	-0.0	-0.0	-0.0	102873.5078125	-35632.45703125	929.0214233398438
0.006	-0.0	-0.0	-0.0	1.380856990814209	29.97215843200684	-354.7228088378906	1.11753249168396	-38.10575866699219	-401.9334411621094	-0.0	-0.0	-0.0	-0.0	-0.0	-0.0	102664.078125	-35336.85546875	886.7565307617188
0.006500000000000001	-0.0	-0.0	-0.0	1.547450065612793	30.3215446472168	-357.6759338378906	1.1975955963134766	-37.961273193359375	-399.7513427734375	-0.0	-0.0	-0.0	-0.0	-0.0	-0.0	102422.2421875	-35328.5390625	907.4015502929688
0.007	-0.0	-0.0	-0.0	1.6468595266342163	30.573543548583984	-357.1472473144531	1.3600571155548096	-37.86838150024414	-398.5760803222656	-0.0	-0.0	-0.0	-0.0	-0.0	-0.0	102172.4921875	-35224.875	849.1923217773438
0.0075	-0.0	-0.0	-0.0	2.1279759407043457	30.660858154296875	-359.8338317871094	1.296233057975769	-37.89000701904297	-396.9072570800781	-0.0	-0.0	-0.0	-0.0	-0.0	-0.0	101581.0234375	-35044.28515625	673.5707397460938
0.008	-0.0	-0.0	-0.0	1.8374608755111692	31.014236450195312	-361.05078125	1.214884638786316	-37.66364669799805	-395.3802490234375	-0.0	-0.0	-0.0	-0.0	-0.0	-0.0	101546.7734375	-34981.00390625	735.1583862304688
0.0085	-0.0	-0.0	-0.0	1.983911633491516	31.226593017578125	-362.83831787109375	1.064497470855713	-37.44264221191406	-394.7464904785156	-0.0	-0.0	-0.0	-0.0	-0.0	-0.0	101148.7890625	-34981.92578125	612.89794921875
0.009000000000000001	-0.0	-0.0	-0.0	1.6619486808776855	31.418466567993164	-363.9482421875	1.1658855676651	-37.13254165649414	-393.5667419433594	-0.0	-0.0	-0.0	-0.0	-0.0	-0.0	100706.6640625	-34629.55078125	548.8178100585938
0.0095	-0.0	-0.0	-0.0	1.5866109132766724	31.49010467529297	-364.84808349609375	0.9301145672798156	-36.848880767822266	-391.0074768066406	-0.0	-0.0	-0.0	-0.0	-0.0	-0.0	100317.1328125	-34474.07421875	545.9292602539062
0.01	-0.0	-0.0	-0.0	1.790292739868164	31.997203826904297	-367.38482666015625	0.723159909248352	-36.87996673583984	-389.0869140625	-0.0	-0.0	-0.0	-0.0	-0.0	-0.0	99892.109375	-34374.92578125	565.7959594726562
0.0105	-0.0	-0.0	-0.0	1.851524353027344	32.35846328735352	-369.3561401367188	0.682887077331543	-36.46353912353516	-388.1176452636719	-0.0	-0.0	-0.0	-0.0	-0.0	-0.0	99456.0	-34141.453125	471.7554626464844
0.011	-0.0	-0.0	-0.0	1.904921293258667	32.55298614501953	-370.4774169921875	0.6165364980697632	-36.23833847045898	-386.1271667480469	-0.0	-0.0	-0.0	-0.0	-0.0	-0.0	99000.1796875	-33866.59765625	384.2664794921875
0.0115	-0.0	-0.0	-0.0	1.9271039962768557	32.907257080078125	-373.62689208984375	0.5144602060317993	-36.55624008178711	-384.3111267089844	-0.0	-0.0	-0.0	-0.0	-0.0	-0.0	98752.3515625	-33683.67578125	436.0411987304688
0.012	-0.0	-0.0	-0.0	2.103104829788208	33.55305480957031	-373.1704711914063	0.2883100509643554	-35.75469970703125	-383.3073120117188	-0.0	-0.0	-0.0	-0.0	-0.0	-0.0	98238.71875	-33553.79296875	265.4754943847656
0.0125	-0.0	-0.0	-0.0	2.0517454147338867	33.7490119934082	-375.712890625	0.2217769622802734	-35.655181884765625	-381.5707092285156	-0.0	-0.0	-0.0	-0.0	-0.0	-0.0	97868.78125	-33377.70703125	270.0282592773437
0.013000000000000001	-0.0	-0.0	-0.0	1.7190641164779663	33.951698303222656	-377.3275451660156	0.4342809021472931	-35.33100128173828	-379.9902648925781	-0.0	-0.0	-0.0	-0.0	-0.0	-0.0	97600.21875	-33404.2421875	156.69105529785156
0.0135	-0.0	-0.0	-0.0	2.230262756347656	34.269962310791016	-378.9305419921875	0.1774215698242187	-35.15203094482422	-378.6882934570313	-0.0	-0.0	-0.0	-0.0	-0.0	-0.0	97001.109375	-33244.01171875	83.3545150756836
0.014	-0.0	-0.0	-0.0	2.136274099349976	34.28866195678711	-380.0043640136719	0.2020456790924072	-34.99146270751953	-376.8188781738281	-0.0	-0.0	-0.0	-0.0	-0.0	-0.0	96481.125	-33100.36328125	184.27896118164065
0.0145	-0.0	-0.0	-0.0	2.04701566696167	34.50183868408203	-382.474853515625	0.1149632185697555	-35.02447891235352	-375.5582885742188	-0.0	-0.0	-0.0	-0.0	-0.0	-0.0	96121.7890625	-32808.6875	158.72891235351562
0.015	-0.0	-0.0	-0.0	2.245131015777588	34.70234298706055	-384.56048583984375	0.1366346776485443	-34.81019592285156	-375.59771728515625	-0.0	-0.0	-0.0	-0.0	-0.0	-0.0	95894.8125	-32764.353515625	144.81015014648438
0.0155	-0.0	-0.0	-0.0	2.250349283218384	35.101051330566406	-385.279541015625	0.1352383196353912	-34.726356506347656	-373.24310302734375	-0.0	-0.0	-0.0	-0.0	-0.0	-0.0	95238.46875	-32648.681640625	106.5296401977539
0.016	-0.0	-0.0	-0.0	2.4061570167541504	35.3704719543457	-387.2719421386719	0.54134202003479	-33.95326614379883	-371.94384765625	-0.0	-0.0	-0.0	-0.0	-0.0	-0.0	95029.1484375	-32440.021484375	69.38719940185547
0.0165	-0.0	-0.0	-0.0	2.5030770301818848	35.33509063720703	-388.144775390625	0.2372270971536636	-34.10028076171875	-369.1047973632813	-0.0	-0.0	-0.0	-0.0	-0.0	-0.0	94741.1015625	-32457.525390625	1.990798830986023
0.017	-0.0	-0.0	-0.0	2.4664814472198486	35.79121398925781	-391.1525268554688	0.2699629664421081	-34.017147064208984	-368.6529235839844	-0.0	-0.0	-0.0	-0.0	-0.0	-0.0	94310.828125	-32168.26171875	35.659481048583984
0.0175	-0.0	-0.0	-0.0	2.456331491470337	36.23455047607422	-391.9261779785156	0.5690840482711792	-33.624732971191406	-366.5235900878906	-0.0	-0.0	-0.0	-0.0	-0.0	-0.0	93980.359375	-31872.912109375	84.49220275878906
0.018000000000000002	-0.0	-0.0	-0.0	2.3352210521698	35.87003707885742	-392.2623596191406	0.2504571676254272	-33.33037567138672	-364.47076416015625	-0.0	-0.0	-0.0	-0.0	-0.0	-0.0	93251.9921875	-31807.66015625	49.80682373046875
